<svg width="328" height="266" viewBox="0 0 328 266" fill="none" xmlns="http://www.w3.org/2000/svg">
<g clip-path="url(#clip0)">
<g opacity="0.7">
<path opacity="0.7" d="M207.252 119.943C207.281 111.574 205.213 103.323 201.225 95.8989C199.332 92.4125 197.605 90.2451 196.262 88.9158C195.755 88.3952 195.093 88.0408 194.369 87.9023C193.644 87.7637 192.893 87.8479 192.22 88.1429C191.682 88.3268 191.197 88.6303 190.802 89.0291C189.005 90.8325 187.381 93.2163 185.963 95.7546C181.768 103.352 179.591 111.842 179.628 120.458V125.631H176.203V65.5209C176.203 52.9218 173.292 40.491 167.591 29.4547C164.89 24.2303 162.426 20.9843 160.529 18.9887C160.07 18.4813 159.504 18.0749 158.869 17.7964C158.235 17.5179 157.546 17.3739 156.849 17.3739C156.153 17.3739 155.464 17.5179 154.829 17.7964C154.195 18.0749 153.629 18.4813 153.169 18.9887C150.602 21.6919 148.287 25.2642 146.263 29.0631C140.268 40.3261 137.223 53.1072 137.223 66.0808V125.631H134.262V120.211C134.299 111.595 132.122 103.105 127.927 95.5073C126.509 92.9724 124.885 90.5886 123.088 88.7818C122.57 88.2539 121.893 87.8988 121.154 87.7679C120.415 87.6371 119.652 87.7371 118.975 88.0536L119.099 88.1189C118.665 88.3048 118.273 88.5708 117.944 88.9021C116.614 90.2313 114.888 92.3988 112.98 95.8852C108.993 103.309 106.925 111.56 106.953 119.929V209.799H117.518L116.366 217.188V239.277H125.002V217.188L123.85 209.799H134.262V127.957H137.223V209.432H145.66L144.448 217.184V239.277H153.088V217.188L151.875 209.435H163.245L162.032 217.188V239.277H170.672V217.188L169.46 209.435H176.196V127.957H179.62V209.923H182.396V209.799H191.575L190.423 217.188V239.277H199.063V217.188L197.91 209.799H207.252V119.943Z" fill="url(#paint0_linear)"/>
</g>
<path d="M126.722 212.88H118.543L120.003 203.259H125.261L126.722 212.88Z" fill="#535461"/>
<g opacity="0.1">
<path opacity="0.1" d="M119.596 207.079H125.669L125.261 204.389H120.003L119.596 207.079Z" fill="black"/>
</g>
<path d="M196.833 212.88H188.654L190.114 203.259H195.372L196.833 212.88Z" fill="#535461"/>
<g opacity="0.1">
<path opacity="0.1" d="M189.707 207.079H195.78L195.372 204.389H190.114L189.707 207.079Z" fill="black"/>
</g>
<path d="M153.307 212.88H145.125L146.586 203.259H151.847L153.307 212.88Z" fill="#535461"/>
<g opacity="0.1">
<path opacity="0.1" d="M146.178 207.079H152.255L151.847 204.389H146.586L146.178 207.079Z" fill="black"/>
</g>
<path d="M169.956 212.88H161.777L163.238 203.259H168.495L169.956 212.88Z" fill="#535461"/>
<g opacity="0.1">
<path opacity="0.1" d="M162.83 207.079H168.907L168.495 204.389H163.238L162.83 207.079Z" fill="black"/>
</g>
<path d="M185.147 123.725H126.722V125.988H185.147V123.725Z" fill="#535461"/>
<path d="M194.181 87.9575C193.872 87.6272 193.495 87.3633 193.075 87.1827C192.655 87.0021 192.2 86.9088 191.74 86.9088C191.28 86.9088 190.825 87.0021 190.405 87.1827C189.984 87.3633 189.608 87.6272 189.299 87.9575C187.597 89.7127 186.062 92.0346 184.719 94.5043C180.742 101.931 178.685 110.182 178.723 118.548V205.688H204.579V118.188C204.612 110.051 202.654 102.022 198.868 94.7585C197.074 91.3649 195.439 89.2524 194.181 87.9575Z" fill="#E0E0E0"/>
<path d="M120.039 87.9575C120.348 87.6272 120.724 87.3633 121.145 87.1827C121.565 87.0021 122.02 86.9088 122.48 86.9088C122.94 86.9088 123.394 87.0021 123.815 87.1827C124.235 87.3633 124.612 87.6272 124.921 87.9575C126.622 89.7127 128.157 92.0346 129.501 94.5043C133.477 101.931 135.534 110.182 135.496 118.548V205.688H109.633V118.188C109.601 110.051 111.558 102.022 115.345 94.7585C117.135 91.3649 118.77 89.2524 120.039 87.9575Z" fill="#E0E0E0"/>
<path d="M109.779 120.046L115.912 120.074V127.404H109.779V120.046Z" fill="#535461"/>
<path d="M129.352 120.046L135.486 120.074V127.404H129.352V120.046Z" fill="#535461"/>
<path d="M178.72 120.046L184.857 120.074V127.404H178.72V120.046Z" fill="#535461"/>
<path d="M198.293 120.046L204.43 120.074V127.404H198.293V120.046Z" fill="#535461"/>
<g opacity="0.1">
<path opacity="0.1" d="M129.491 94.391C128.15 91.9213 126.612 89.5993 124.91 87.8441C124.429 87.3295 123.788 86.9815 123.084 86.8531C122.379 86.7247 121.651 86.8231 121.01 87.1331C121.38 87.3117 121.713 87.5524 121.996 87.8441C123.698 89.5993 125.233 91.9213 126.576 94.391C130.552 101.818 132.61 110.069 132.571 118.435V205.567H135.493V118.445C135.53 110.075 133.471 101.82 129.491 94.391Z" fill="black"/>
</g>
<g opacity="0.1">
<path opacity="0.1" d="M187.044 94.6314C188.384 92.1617 189.923 89.8398 191.625 88.0845C191.943 87.7523 192.328 87.486 192.756 87.3014C192.124 87.0332 191.421 86.9646 190.746 87.1052C190.072 87.2457 189.46 87.5884 188.998 88.0845C187.296 89.8398 185.761 92.1617 184.417 94.6314C180.441 102.058 178.384 110.309 178.422 118.676V205.808H181.053V118.689C181.011 110.318 183.067 102.063 187.044 94.6314Z" fill="black"/>
</g>
<path d="M126.722 212.88H118.543V234.39H126.722V212.88Z" fill="url(#paint1_linear)"/>
<path d="M153.304 212.88H145.125V234.39H153.304V212.88Z" fill="url(#paint2_linear)"/>
<path d="M169.956 212.88H161.777V234.39H169.956V212.88Z" fill="url(#paint3_linear)"/>
<path d="M196.833 212.88H188.654V234.39H196.833V212.88Z" fill="url(#paint4_linear)"/>
<path d="M160.348 19.6378C159.921 19.1458 159.388 18.7502 158.786 18.4789C158.185 18.2075 157.529 18.0669 156.865 18.0669C156.201 18.0669 155.546 18.2075 154.944 18.4789C154.342 18.7502 153.809 19.1458 153.382 19.6378C150.953 22.2689 148.773 25.7485 146.844 29.4513C141.172 40.4222 138.286 52.8737 138.286 65.5003V205.33H175.189V64.9369C175.189 52.6676 172.434 40.5493 167.035 29.8291C164.479 24.7421 162.146 21.582 160.348 19.6378Z" fill="#EEEEEE"/>
<path d="M162.21 35.1703H150.755C148.601 35.1703 146.855 36.862 146.855 38.9487V39.9414C146.855 42.0281 148.601 43.7197 150.755 43.7197H162.21C164.363 43.7197 166.109 42.0281 166.109 39.9414V38.9487C166.109 36.862 164.363 35.1703 162.21 35.1703Z" fill="#6C63FF"/>
<g opacity="0.7">
<path opacity="0.7" d="M242.705 232.04C241.494 224.966 237.576 218.594 231.732 214.194C225.888 209.794 218.548 207.689 211.174 208.299C203.8 208.908 196.933 212.188 191.943 217.484C186.954 222.779 184.207 229.703 184.251 236.873C184.251 237.014 184.251 237.151 184.251 237.292C183.162 237.452 182.085 237.675 181.024 237.962C179.666 232.722 176.66 228.02 172.422 224.509C168.185 220.997 162.925 218.849 157.371 218.362C151.817 217.875 146.245 219.073 141.425 221.79C136.605 224.507 132.776 228.609 130.469 233.527C128.091 232.638 125.593 232.086 123.052 231.886C122.647 229.657 121.968 227.483 121.028 225.411C120.587 218.873 117.618 212.736 112.714 208.226C107.809 203.715 101.33 201.161 94.5678 201.075C87.8059 200.988 81.259 203.374 76.233 207.758C71.207 212.141 68.0715 218.199 67.4521 224.724C66.06 227.58 65.1709 230.641 64.8215 233.782C58.6674 236.262 53.6831 240.868 50.8344 246.707C47.9858 252.545 47.4758 259.2 49.4032 265.382H264.806C265.929 261.777 266.231 257.978 265.693 254.248C265.155 250.518 263.788 246.945 261.687 243.776C259.587 240.607 256.802 237.916 253.525 235.89C250.248 233.864 246.556 232.551 242.705 232.04Z" fill="url(#paint5_linear)"/>
</g>
<path d="M96.6826 252.375C110.943 252.375 122.503 241.174 122.503 227.358C122.503 213.542 110.943 202.342 96.6826 202.342C82.4226 202.342 70.8625 213.542 70.8625 227.358C70.8625 241.174 82.4226 252.375 96.6826 252.375Z" fill="url(#paint6_linear)"/>
<path d="M96.555 264.132C112.17 264.132 124.828 251.868 124.828 236.739C124.828 221.61 112.17 209.346 96.555 209.346C80.9401 209.346 68.2816 221.61 68.2816 236.739C68.2816 251.868 80.9401 264.132 96.555 264.132Z" fill="url(#paint7_linear)"/>
<path d="M211.457 264.132C227.072 264.132 239.73 251.868 239.73 236.739C239.73 221.61 227.072 209.346 211.457 209.346C195.842 209.346 183.183 221.61 183.183 236.739C183.183 251.868 195.842 264.132 211.457 264.132Z" fill="url(#paint8_linear)"/>
<path d="M210.035 264.132C224.295 264.132 235.855 252.932 235.855 239.116C235.855 225.3 224.295 214.1 210.035 214.1C195.775 214.1 184.215 225.3 184.215 239.116C184.215 252.932 195.775 264.132 210.035 264.132Z" fill="url(#paint9_linear)"/>
<path d="M180.858 243.87C180.862 247.826 179.896 251.726 178.039 255.249C176.183 258.773 173.489 261.818 170.179 264.135H139.892C136.307 261.625 133.448 258.265 131.588 254.377C129.728 250.489 128.929 246.203 129.269 241.931C129.609 237.658 131.075 233.541 133.527 229.975C135.98 226.409 139.337 223.513 143.276 221.564C147.215 219.615 151.605 218.679 156.025 218.845C160.445 219.011 164.746 220.274 168.518 222.512C172.289 224.751 175.404 227.891 177.564 231.63C179.724 235.37 180.857 239.584 180.854 243.87H180.858Z" fill="url(#paint10_linear)"/>
<path d="M212.878 261.882C212.878 262.631 212.844 263.372 212.776 264.105C212.778 264.115 212.778 264.125 212.776 264.135H161.341C161.27 263.394 161.235 262.641 161.235 261.886C161.23 255.899 163.444 250.111 167.472 245.572C171.501 241.033 177.077 238.046 183.187 237.155C184.464 236.969 185.753 236.874 187.044 236.873C187.704 236.873 188.359 236.897 189.008 236.942C193.636 237.285 198.083 238.829 201.882 241.412C205.682 243.995 208.693 247.522 210.599 251.622C210.705 251.849 210.808 252.079 210.904 252.309C212.208 255.343 212.879 258.596 212.878 261.882Z" fill="url(#paint11_linear)"/>
<path d="M261.679 256.878C261.682 259.335 261.309 261.78 260.573 264.132H211.152C209.957 260.285 209.73 256.217 210.489 252.268C210.532 252.052 210.574 251.832 210.624 251.619C211.868 246.026 215.052 241.015 219.647 237.42C224.241 233.826 229.968 231.865 235.873 231.865C236.685 231.865 237.483 231.899 238.273 231.975C238.628 232.002 238.982 232.043 239.337 232.088C245.525 232.904 251.199 235.865 255.307 240.423C259.415 244.981 261.679 250.827 261.679 256.878Z" fill="url(#paint12_linear)"/>
<path d="M103.068 264.135C103.153 263.874 103.227 263.613 103.302 263.349C104.477 259.09 104.471 254.605 103.283 250.349C102.095 246.093 99.7686 242.217 96.5381 239.111C93.3077 236.006 89.2881 233.783 84.886 232.666C80.4839 231.549 75.8555 231.578 71.4689 232.751C70.4417 233.024 69.4339 233.361 68.4518 233.761C62.5386 236.144 57.7493 240.57 55.0126 246.18C52.2759 251.791 51.7867 258.185 53.6398 264.125H103.068V264.135Z" fill="url(#paint13_linear)"/>
<g opacity="0.7">
<path opacity="0.7" d="M251.866 212.685C254.481 212.685 256.602 210.63 256.602 208.096C256.602 205.561 254.481 203.507 251.866 203.507C249.25 203.507 247.129 205.561 247.129 208.096C247.129 210.63 249.25 212.685 251.866 212.685Z" fill="url(#paint14_linear)"/>
</g>
<path d="M251.866 212.348C254.29 212.348 256.255 210.444 256.255 208.096C256.255 205.747 254.29 203.843 251.866 203.843C249.442 203.843 247.477 205.747 247.477 208.096C247.477 210.444 249.442 212.348 251.866 212.348Z" fill="url(#paint15_linear)"/>
<g opacity="0.7">
<path opacity="0.7" d="M273.555 257.379C276.408 257.379 278.721 255.138 278.721 252.374C278.721 249.611 276.408 247.37 273.555 247.37C270.703 247.37 268.39 249.611 268.39 252.374C268.39 255.138 270.703 257.379 273.555 257.379Z" fill="url(#paint16_linear)"/>
</g>
<path d="M273.556 257.128C276.265 257.128 278.462 255 278.462 252.375C278.462 249.749 276.265 247.621 273.556 247.621C270.846 247.621 268.649 249.749 268.649 252.375C268.649 255 270.846 257.128 273.556 257.128Z" fill="url(#paint17_linear)"/>
<g opacity="0.7">
<path opacity="0.7" d="M52.5301 229.354C55.6648 229.354 58.206 226.892 58.206 223.855C58.206 220.818 55.6648 218.356 52.5301 218.356C49.3953 218.356 46.8541 220.818 46.8541 223.855C46.8541 226.892 49.3953 229.354 52.5301 229.354Z" fill="url(#paint18_linear)"/>
</g>
<path d="M52.5301 229.107C55.5238 229.107 57.9508 226.755 57.9508 223.855C57.9508 220.954 55.5238 218.603 52.5301 218.603C49.5363 218.603 47.1094 220.954 47.1094 223.855C47.1094 226.755 49.5363 229.107 52.5301 229.107Z" fill="url(#paint19_linear)"/>
<g opacity="0.4">
<path opacity="0.4" d="M266.362 6.88044C265.104 5.2697 263.528 3.91758 261.725 2.90286C259.657 1.7514 257.343 1.07568 254.963 0.927843C252.583 0.780007 250.199 1.16401 247.996 2.05021C245.793 2.93642 243.83 4.30113 242.257 6.03905C240.685 7.77697 239.546 9.84162 238.928 12.0737C238.31 14.3058 238.229 16.6456 238.693 18.9126C239.156 21.1796 240.15 23.3132 241.6 25.1488C243.049 26.9843 244.914 28.4728 247.051 29.4992C249.188 30.5256 251.54 31.0627 253.925 31.0688C254.255 31.0688 254.585 31.0688 254.911 31.0379C257.717 30.8664 260.423 29.9616 262.742 28.4197C265.06 26.8777 266.904 24.7562 268.077 22.2805C269.251 19.8048 269.711 17.0673 269.407 14.3588C269.104 11.6503 268.049 9.07194 266.355 6.89761L266.362 6.88044Z" fill="url(#paint20_linear)"/>
</g>
<path opacity="0.2" d="M268.649 15.966C268.649 19.5913 267.224 23.0806 264.664 25.7241C262.103 28.3677 258.599 29.967 254.865 30.1966C254.557 30.2173 254.245 30.2276 253.933 30.2276C251.676 30.2263 249.45 29.7222 247.426 28.7543C245.403 27.7864 243.636 26.3807 242.263 24.6457C240.89 22.9108 239.947 20.8931 239.507 18.7487C239.067 16.6043 239.142 14.3906 239.726 12.2788C240.31 10.167 241.388 8.21357 242.876 6.56962C244.363 4.92567 246.221 3.63521 248.306 2.79801C250.391 1.96081 252.646 1.59929 254.898 1.74141C257.15 1.88352 259.338 2.52546 261.293 3.6176C262.997 4.57693 264.488 5.85551 265.678 7.37879C267.61 9.84979 268.654 12.866 268.649 15.966Z" fill="#6C63FF"/>
<path opacity="0.05" d="M250.309 6.92196C249.549 7.23971 248.815 7.61409 248.115 8.04173C247.647 8.2931 247.245 8.64575 246.941 9.07219C246.793 9.28606 246.711 9.53689 246.706 9.79461C246.701 10.0523 246.773 10.306 246.913 10.5251C247.267 10.9991 247.976 11.0747 248.569 11.1056C249.113 11.2176 249.678 11.1875 250.206 11.0186C250.734 10.8496 251.207 10.5477 251.575 10.1439L252.841 9.03097C253.28 8.64626 253.762 8.11386 253.571 7.57115C253.426 7.15553 252.943 6.95287 252.507 6.88417C251.42 6.67675 250.291 6.86898 249.341 7.42345" fill="#F55F44"/>
<path opacity="0.05" d="M245.023 22.3445C245.45 22.3445 245.796 22.0093 245.796 21.5957C245.796 21.1822 245.45 20.8469 245.023 20.8469C244.596 20.8469 244.25 21.1822 244.25 21.5957C244.25 22.0093 244.596 22.3445 245.023 22.3445Z" fill="#F55F44"/>
<path opacity="0.05" d="M260.775 19.5932C262.343 19.5932 263.615 18.3614 263.615 16.8418C263.615 15.3223 262.343 14.0905 260.775 14.0905C259.207 14.0905 257.935 15.3223 257.935 16.8418C257.935 18.3614 259.207 19.5932 260.775 19.5932Z" fill="#F55F44"/>
<path opacity="0.05" d="M265.682 7.37536C265.67 8.09426 265.446 8.79492 265.036 9.39405C264.626 9.99318 264.047 10.4656 263.367 10.7551C262.688 11.0446 261.937 11.139 261.204 11.0271C260.471 10.9153 259.787 10.6018 259.232 10.124C258.677 9.64627 258.276 9.02426 258.076 8.33196C257.876 7.63967 257.885 6.9062 258.102 6.21875C258.319 5.53131 258.736 4.9188 259.302 4.45403C259.868 3.98927 260.56 3.69181 261.296 3.597C263.003 4.56137 264.494 5.84588 265.682 7.37536Z" fill="#F55F44"/>
<path opacity="0.05" d="M265.965 24.1788C264.699 25.9241 263.044 27.3712 261.123 28.4129C259.201 29.4546 257.062 30.0642 254.865 30.1966C254.847 30.0009 254.837 29.8016 254.837 29.6024C254.837 28.3509 255.196 27.124 255.874 26.0587C256.552 24.9934 257.522 24.1315 258.676 23.5691C259.83 23.0067 261.123 22.7659 262.41 22.8735C263.697 22.9812 264.928 23.433 265.965 24.1788Z" fill="#F55F44"/>
<path opacity="0.25" d="M256.255 121.039C257.253 121.039 258.063 120.254 258.063 119.287C258.063 118.319 257.253 117.535 256.255 117.535C255.256 117.535 254.447 118.319 254.447 119.287C254.447 120.254 255.256 121.039 256.255 121.039Z" fill="#535461"/>
<path opacity="0.25" d="M15.1772 167.066C16.1758 167.066 16.9853 166.282 16.9853 165.314C16.9853 164.347 16.1758 163.562 15.1772 163.562C14.1786 163.562 13.3691 164.347 13.3691 165.314C13.3691 166.282 14.1786 167.066 15.1772 167.066Z" fill="#535461"/>
<path opacity="0.25" d="M326.096 177.027C327.095 177.027 327.904 176.243 327.904 175.275C327.904 174.308 327.095 173.524 326.096 173.524C325.098 173.524 324.288 174.308 324.288 175.275C324.288 176.243 325.098 177.027 326.096 177.027Z" fill="#535461"/>
<path opacity="0.25" d="M102.362 94.02C103.361 94.02 104.17 93.2357 104.17 92.2682C104.17 91.3007 103.361 90.5164 102.362 90.5164C101.364 90.5164 100.554 91.3007 100.554 92.2682C100.554 93.2357 101.364 94.02 102.362 94.02Z" fill="#535461"/>
<path opacity="0.25" d="M96.4239 53.7427C97.4225 53.7427 98.232 52.9584 98.232 51.9909C98.232 51.0234 97.4225 50.2391 96.4239 50.2391C95.4254 50.2391 94.6158 51.0234 94.6158 51.9909C94.6158 52.9584 95.4254 53.7427 96.4239 53.7427Z" fill="#535461"/>
<path opacity="0.25" d="M45.2977 133.545C46.2963 133.545 47.1058 132.761 47.1058 131.793C47.1058 130.826 46.2963 130.042 45.2977 130.042C44.2991 130.042 43.4896 130.826 43.4896 131.793C43.4896 132.761 44.2991 133.545 45.2977 133.545Z" fill="#535461"/>
<path opacity="0.25" d="M301.056 133.851H299.446V132.295H298.791V133.851H297.181V134.49H298.791V136.046H299.446V134.49H301.056V133.851Z" fill="#535461"/>
<path opacity="0.25" d="M328 79.9233H326.39V78.3673H325.735V79.9233H324.125V80.5622H325.735V82.1182H326.39V80.5622H328V79.9233Z" fill="#535461"/>
<path opacity="0.25" d="M213.265 49.796H211.655V48.2366H210.999V49.796H209.39V50.4315H210.999V51.9909H211.655V50.4315H213.265V49.796Z" fill="#535461"/>
<path opacity="0.25" d="M283.496 125.095H281.887V123.539H281.231V125.095H279.625V125.734H281.231V127.29H281.887V125.734H283.496V125.095Z" fill="#535461"/>
<path opacity="0.25" d="M224.624 176.879H223.018V175.323H222.362V176.879H220.752V177.518H222.362V179.074H223.018V177.518H224.624V176.879Z" fill="#535461"/>
<path opacity="0.25" d="M59.89 70.0583H58.2804V68.5023H57.6246V70.0583H56.015V70.6938H57.6246V72.2532H58.2804V70.6938H59.89V70.0583Z" fill="#535461"/>
<path opacity="0.25" d="M3.87497 90.3241H2.26542V88.7681H1.60955V90.3241H0V90.9595H1.60955V92.519H2.26542V90.9595H3.87497V90.3241Z" fill="#535461"/>
<path opacity="0.25" d="M82.094 154.117H80.4844V152.557H79.8285V154.117H78.2225V154.752H79.8285V156.311H80.4844V154.752H82.094V154.117Z" fill="#535461"/>
<path d="M273.556 257.128C276.265 257.128 278.462 255 278.462 252.375C278.462 249.749 276.265 247.621 273.556 247.621C270.846 247.621 268.649 249.749 268.649 252.375C268.649 255 270.846 257.128 273.556 257.128Z" fill="url(#paint21_linear)"/>
<g opacity="0.4">
<path opacity="0.4" d="M95.3532 120.523C94.7542 119.756 94.0034 119.111 93.1446 118.627C92.1596 118.072 91.0557 117.744 89.9187 117.669C88.7816 117.593 87.642 117.773 86.5882 118.194C85.5345 118.614 84.5949 119.265 83.8426 120.094C83.0902 120.923 82.5452 121.91 82.25 122.976C81.9548 124.043 81.9172 125.161 82.1402 126.244C82.3632 127.327 82.8408 128.345 83.5358 129.22C84.2309 130.095 85.1248 130.803 86.1481 131.29C87.1714 131.776 88.2965 132.027 89.4362 132.023C89.5922 132.023 89.7517 132.023 89.9042 132.023C91.2401 131.941 92.528 131.509 93.6313 130.774C94.7346 130.04 95.6121 129.03 96.1707 127.851C96.7294 126.672 96.9484 125.369 96.8044 124.08C96.6605 122.79 96.1591 121.563 95.3532 120.527V120.523Z" fill="url(#paint22_linear)"/>
</g>
<path opacity="0.2" d="M96.4416 124.851C96.4416 126.578 95.7626 128.24 94.543 129.499C93.3233 130.758 91.6544 131.519 89.8758 131.628C89.7304 131.628 89.5815 131.628 89.4326 131.628C88.3581 131.627 87.2982 131.387 86.3349 130.926C85.3715 130.465 84.5305 129.795 83.8769 128.969C83.2232 128.142 82.7744 127.182 82.565 126.16C82.3557 125.139 82.3916 124.085 82.6697 123.08C82.9479 122.074 83.461 121.144 84.1693 120.361C84.8777 119.578 85.7623 118.964 86.7549 118.565C87.7475 118.166 88.8214 117.994 89.8937 118.061C90.9659 118.129 92.0079 118.434 92.9389 118.954C93.7503 119.411 94.4601 120.019 95.0271 120.743C95.951 121.925 96.4481 123.369 96.4416 124.851Z" fill="#6C63FF"/>
<path opacity="0.1" d="M87.7061 120.544C87.3378 120.694 86.9821 120.872 86.6426 121.077C86.42 121.194 86.2284 121.36 86.0824 121.561C86.0149 121.663 85.979 121.783 85.979 121.904C85.979 122.026 86.0149 122.145 86.0824 122.248C86.1855 122.346 86.3091 122.421 86.445 122.468C86.5808 122.516 86.7256 122.534 86.8695 122.523C87.1264 122.574 87.3927 122.558 87.6416 122.478C87.8905 122.398 88.1133 122.256 88.2876 122.066L88.8903 121.537C89.0994 121.351 89.3299 121.101 89.2448 120.85C89.1972 120.755 89.1253 120.674 89.0359 120.613C88.9465 120.553 88.8426 120.516 88.7343 120.506C88.2164 120.408 87.6794 120.5 87.2275 120.764" fill="#F55F44"/>
<path opacity="0.1" d="M85.189 127.888C85.3926 127.888 85.5577 127.728 85.5577 127.531C85.5577 127.333 85.3926 127.173 85.189 127.173C84.9854 127.173 84.8203 127.333 84.8203 127.531C84.8203 127.728 84.9854 127.888 85.189 127.888Z" fill="#F55F44"/>
<path opacity="0.1" d="M92.6907 126.579C93.4387 126.579 94.045 125.992 94.045 125.267C94.045 124.542 93.4387 123.955 92.6907 123.955C91.9428 123.955 91.3364 124.542 91.3364 125.267C91.3364 125.992 91.9428 126.579 92.6907 126.579Z" fill="#F55F44"/>
<path opacity="0.1" d="M95.027 120.774C95.0225 121.116 94.9167 121.45 94.7221 121.736C94.5275 122.021 94.2524 122.247 93.9294 122.385C93.6064 122.523 93.2492 122.569 92.9002 122.516C92.5512 122.464 92.2252 122.315 91.9609 122.088C91.6966 121.861 91.5051 121.566 91.4093 121.236C91.3134 120.907 91.3172 120.558 91.4203 120.231C91.5233 119.903 91.7212 119.611 91.9904 119.39C92.2596 119.169 92.5888 119.027 92.9389 118.981C93.7506 119.439 94.4604 120.048 95.027 120.774Z" fill="#F55F44"/>
<path opacity="0.1" d="M95.1653 128.764C94.5626 129.595 93.7746 130.285 92.8596 130.781C91.9446 131.278 90.926 131.569 89.8793 131.632C89.8793 131.539 89.8793 131.443 89.8793 131.347C89.8773 130.748 90.0478 130.16 90.3717 129.65C90.6955 129.14 91.1598 128.728 91.7124 128.459C92.265 128.191 92.8839 128.077 93.4995 128.131C94.1151 128.185 94.7031 128.404 95.1972 128.764H95.1653Z" fill="#F55F44"/>
<g opacity="0.1">
<path opacity="0.1" d="M174.99 70.2816H138.474V71.6556H174.99V70.2816Z" fill="black"/>
</g>
</g>
<defs>
<linearGradient id="paint0_linear" x1="157.104" y1="239.277" x2="157.104" y2="17.3846" gradientUnits="userSpaceOnUse">
<stop stop-color="#808080" stop-opacity="0.25"/>
<stop offset="0.54" stop-color="#808080" stop-opacity="0.12"/>
<stop offset="1" stop-color="#808080" stop-opacity="0.1"/>
</linearGradient>
<linearGradient id="paint1_linear" x1="122.63" y1="212.88" x2="122.63" y2="234.393" gradientUnits="userSpaceOnUse">
<stop stop-color="#E0E0E0"/>
<stop offset="0.31" stop-color="#FCCC63"/>
<stop offset="0.77" stop-color="#F55F44"/>
</linearGradient>
<linearGradient id="paint2_linear" x1="3587.55" y1="13488.3" x2="3587.55" y2="14835.5" gradientUnits="userSpaceOnUse">
<stop stop-color="#E0E0E0"/>
<stop offset="0.31" stop-color="#FCCC63"/>
<stop offset="0.77" stop-color="#F55F44"/>
</linearGradient>
<linearGradient id="paint3_linear" x1="3988.38" y1="13488.3" x2="3988.38" y2="14835.5" gradientUnits="userSpaceOnUse">
<stop stop-color="#E0E0E0"/>
<stop offset="0.31" stop-color="#FCCC63"/>
<stop offset="0.77" stop-color="#F55F44"/>
</linearGradient>
<linearGradient id="paint4_linear" x1="4635.25" y1="13488.3" x2="4635.25" y2="14835.5" gradientUnits="userSpaceOnUse">
<stop stop-color="#E0E0E0"/>
<stop offset="0.31" stop-color="#FCCC63"/>
<stop offset="0.77" stop-color="#F55F44"/>
</linearGradient>
<linearGradient id="paint5_linear" x1="126433" y1="53903.2" x2="126433" y2="41860.5" gradientUnits="userSpaceOnUse">
<stop stop-color="#808080" stop-opacity="0.25"/>
<stop offset="0.54" stop-color="#808080" stop-opacity="0.12"/>
<stop offset="1" stop-color="#808080" stop-opacity="0.1"/>
</linearGradient>
<linearGradient id="paint6_linear" x1="96.6827" y1="202.342" x2="96.6827" y2="252.375" gradientUnits="userSpaceOnUse">
<stop stop-color="#F2F2F2"/>
<stop offset="0.31" stop-color="#E6E6E6"/>
<stop offset="0.77" stop-color="#CCCCCC"/>
</linearGradient>
<linearGradient id="paint7_linear" x1="15468.8" y1="33459.7" x2="15468.8" y2="42198.1" gradientUnits="userSpaceOnUse">
<stop stop-color="#F2F2F2"/>
<stop offset="0.31" stop-color="#E6E6E6"/>
<stop offset="0.77" stop-color="#CCCCCC"/>
</linearGradient>
<linearGradient id="paint8_linear" x1="33910.5" y1="33459.7" x2="33910.5" y2="42198.1" gradientUnits="userSpaceOnUse">
<stop stop-color="#F2F2F2"/>
<stop offset="0.31" stop-color="#E6E6E6"/>
<stop offset="0.77" stop-color="#CCCCCC"/>
</linearGradient>
<linearGradient id="paint9_linear" x1="30777.9" y1="31271.7" x2="30777.9" y2="38559.4" gradientUnits="userSpaceOnUse">
<stop stop-color="#F2F2F2"/>
<stop offset="0.31" stop-color="#E6E6E6"/>
<stop offset="0.77" stop-color="#CCCCCC"/>
</linearGradient>
<linearGradient id="paint10_linear" x1="29822.1" y1="31914.7" x2="29822.1" y2="37887.9" gradientUnits="userSpaceOnUse">
<stop stop-color="#F2F2F2"/>
<stop offset="0.31" stop-color="#E6E6E6"/>
<stop offset="0.77" stop-color="#CCCCCC"/>
</linearGradient>
<linearGradient id="paint11_linear" x1="34505.9" y1="20737.8" x2="34505.9" y2="22902.2" gradientUnits="userSpaceOnUse">
<stop stop-color="#F2F2F2"/>
<stop offset="0.31" stop-color="#E6E6E6"/>
<stop offset="0.77" stop-color="#CCCCCC"/>
</linearGradient>
<linearGradient id="paint12_linear" x1="41652.4" y1="24026" x2="41652.4" y2="27057.9" gradientUnits="userSpaceOnUse">
<stop stop-color="#F2F2F2"/>
<stop offset="0.31" stop-color="#E6E6E6"/>
<stop offset="0.77" stop-color="#CCCCCC"/>
</linearGradient>
<linearGradient id="paint13_linear" x1="18562.3" y1="24039.9" x2="18562.3" y2="27073.5" gradientUnits="userSpaceOnUse">
<stop stop-color="#F2F2F2"/>
<stop offset="0.31" stop-color="#E6E6E6"/>
<stop offset="0.77" stop-color="#CCCCCC"/>
</linearGradient>
<linearGradient id="paint14_linear" x1="6976.96" y1="5862.92" x2="6976.96" y2="5617.69" gradientUnits="userSpaceOnUse">
<stop stop-color="#808080" stop-opacity="0.25"/>
<stop offset="0.54" stop-color="#808080" stop-opacity="0.12"/>
<stop offset="1" stop-color="#808080" stop-opacity="0.1"/>
</linearGradient>
<linearGradient id="paint15_linear" x1="6483.66" y1="5229.23" x2="6483.66" y2="5439.81" gradientUnits="userSpaceOnUse">
<stop stop-color="#F2F2F2"/>
<stop offset="0.31" stop-color="#E6E6E6"/>
<stop offset="0.77" stop-color="#CCCCCC"/>
</linearGradient>
<linearGradient id="paint16_linear" x1="8239.82" y1="7721.73" x2="8239.82" y2="7430.16" gradientUnits="userSpaceOnUse">
<stop stop-color="#808080" stop-opacity="0.25"/>
<stop offset="0.54" stop-color="#808080" stop-opacity="0.12"/>
<stop offset="1" stop-color="#808080" stop-opacity="0.1"/>
</linearGradient>
<linearGradient id="paint17_linear" x1="273.556" y1="247.621" x2="273.556" y2="257.128" gradientUnits="userSpaceOnUse">
<stop stop-color="#F2F2F2"/>
<stop offset="0.31" stop-color="#E0E0E0"/>
<stop offset="0.77" stop-color="#B3B3B3"/>
</linearGradient>
<linearGradient id="paint18_linear" x1="1728.87" y1="7534.07" x2="1728.87" y2="7181.9" gradientUnits="userSpaceOnUse">
<stop stop-color="#808080" stop-opacity="0.25"/>
<stop offset="0.54" stop-color="#808080" stop-opacity="0.12"/>
<stop offset="1" stop-color="#808080" stop-opacity="0.1"/>
</linearGradient>
<linearGradient id="paint19_linear" x1="1653.48" y1="6876.6" x2="1653.48" y2="7197.91" gradientUnits="userSpaceOnUse">
<stop stop-color="#F2F2F2"/>
<stop offset="0.31" stop-color="#E6E6E6"/>
<stop offset="0.77" stop-color="#CCCCCC"/>
</linearGradient>
<linearGradient id="paint20_linear" x1="26789.3" y1="4610.86" x2="26789.3" y2="1960.56" gradientUnits="userSpaceOnUse">
<stop stop-color="#808080" stop-opacity="0.25"/>
<stop offset="0.54" stop-color="#808080" stop-opacity="0.12"/>
<stop offset="1" stop-color="#808080" stop-opacity="0.1"/>
</linearGradient>
<linearGradient id="paint21_linear" x1="7840.61" y1="7077.4" x2="7840.61" y2="7340.57" gradientUnits="userSpaceOnUse">
<stop stop-color="#F2F2F2"/>
<stop offset="0.31" stop-color="#E6E6E6"/>
<stop offset="0.77" stop-color="#CCCCCC"/>
</linearGradient>
<linearGradient id="paint22_linear" x1="5868.83" y1="6538.7" x2="5868.83" y2="5937.39" gradientUnits="userSpaceOnUse">
<stop stop-color="#808080" stop-opacity="0.25"/>
<stop offset="0.54" stop-color="#808080" stop-opacity="0.12"/>
<stop offset="1" stop-color="#808080" stop-opacity="0.1"/>
</linearGradient>
<clipPath id="clip0">
<rect width="328" height="264.516" fill="white" transform="translate(0 0.880005)"/>
</clipPath>
</defs>
</svg>
