<svg width="248" height="166" viewBox="0 0 248 166" fill="none" xmlns="http://www.w3.org/2000/svg">
<g clip-path="url(#clip0)">
<path d="M228.053 40.2652C200.019 5.18202 140.798 -9.04925 82.5565 6.27816C51.766 14.3813 22.0782 30.6172 7.36572 62.055C-18.9345 118.254 36.2861 136.202 72.3944 141.922C89.8544 144.688 106.299 149.335 121.326 155.661C148.361 167.042 196.214 177.127 232.299 129.719C258.454 95.3579 246.726 63.6341 228.053 40.2652Z" fill="#F2F2F2"/>
<path d="M65.5207 47.2063C65.4423 46.6487 65.2837 46.1027 65.0489 45.5818C65.0189 45.4833 64.9665 45.3915 64.8949 45.3123C64.8234 45.233 64.7342 45.168 64.6332 45.1214C64.4981 45.0898 64.3565 45.0884 64.2207 45.1173L62.1031 45.4087C61.9259 45.4159 61.7562 45.4752 61.62 45.5775C61.3442 45.8383 61.6158 46.2584 61.6073 46.6183C61.5978 47.0229 61.198 47.3514 60.7645 47.4601C60.3219 47.5405 59.8654 47.5354 59.4252 47.4451L56.4642 47.0313C57.3363 46.7809 58.1125 46.3151 58.7043 45.687C59.0939 45.2719 59.3012 44.4968 58.7381 44.3002C58.5708 44.2589 58.3963 44.2463 58.2238 44.2631C56.8822 44.2725 55.8266 43.2651 54.5706 42.8409C53.7668 42.5869 52.8943 42.568 52.0778 42.7869C51.2614 43.0058 50.5427 43.4513 50.0248 44.0596L51.6021 44.128C51.7505 44.1206 51.8977 44.1559 52.0223 44.2288C52.368 44.4842 51.9382 44.9748 51.9869 45.3748C52.0502 45.8944 52.8174 46.0054 53.3957 46.0579C53.9741 46.1105 54.7077 46.533 54.4295 46.992C51.5228 47.8925 48.5648 45.2319 45.5121 45.5594C44.7395 45.6423 44.0099 45.9153 43.2556 46.0869C38.6476 47.1354 33.8837 44.3379 29.1763 44.9304C28.1298 45.0908 27.1013 45.3347 26.1029 45.6593C25.4622 45.8485 24.794 46.053 24.3285 46.4917C23.8629 46.9305 23.6858 47.6808 24.1268 48.1396C22.9113 48.2296 21.6876 48.125 20.5127 47.8306C20.8305 47.9895 21.0948 48.2223 21.2779 48.5046C21.4611 48.787 21.5563 49.1085 21.5537 49.4354C19.6558 49.7137 17.8082 50.2204 16.0605 50.9417C16.3867 51.4295 16.7677 51.886 17.1975 52.3038L14.7948 53.692C15.6065 53.8759 16.0262 54.8714 15.5542 55.4931C16.3958 55.1563 16.9175 54.2852 17.8175 54.1086C18.4072 53.9929 19.0071 54.2098 19.5665 54.4136C20.1259 54.6174 20.7407 54.815 21.3197 54.662C21.8988 54.5091 22.3259 53.8339 21.958 53.4036C24.433 52.7542 26.9909 52.3948 29.5683 52.3343C29.7672 52.3119 29.9688 52.3463 30.1447 52.4327C30.4802 52.642 30.3919 53.0942 30.3739 53.4611C30.3558 53.828 30.6737 54.3101 31.0384 54.1448C30.6094 54.4793 30.9761 55.109 31.3876 55.4608C31.7992 55.8126 32.2952 56.298 32.0433 56.7556C31.9775 56.875 31.866 56.9706 31.8027 57.0911C31.6159 57.4468 31.9125 57.8615 32.2622 58.0977C32.612 58.3339 33.0404 58.499 33.2834 58.8261C33.5263 59.1532 33.416 59.7258 32.9815 59.7715L31.7467 58.3615C31.3248 58.7549 31.0355 59.2478 30.9125 59.7831C32.222 60.7458 32.4189 62.7053 31.3227 63.8635C30.7624 64.4555 29.9658 64.8151 29.2704 65.2768C28.5751 65.7385 27.9317 66.3959 27.9334 67.1732C27.9365 68.5161 27.8145 69.7637 28.374 71.0088C29.4058 73.3045 30.5971 75.5396 31.9407 77.701C32.2936 78.2685 32.7496 78.8905 33.4644 78.9883C32.561 77.0105 31.7478 75.0019 31.0248 72.9625C31.4957 72.9642 32.04 72.9978 32.316 73.3409C32.5446 73.6251 32.4955 74.0114 32.5666 74.3562C32.6569 74.6903 32.8076 75.0089 33.0125 75.2991L37.3264 82.2098C37.684 82.7827 38.0942 83.3976 38.7777 83.6296C39.2147 83.778 39.7202 83.75 40.1224 83.9636C40.4377 84.131 40.65 84.4281 40.9714 84.5858C41.8802 85.0316 43.1439 84.1766 43.9931 84.7089C44.2359 84.861 44.3904 85.1028 44.6141 85.2771C45.3985 85.888 46.6851 85.4793 47.5906 85.935C48.1741 86.2287 48.4766 86.816 48.7878 87.3483C49.5675 88.6816 50.829 89.9878 52.4998 90.0939C53.0247 90.1273 53.5608 90.0378 54.0738 90.1428C54.5869 90.2477 55.0919 90.6504 55.0095 91.1178C54.8684 91.919 55.3085 92.7963 55.1903 93.6006C54.975 95.0655 52.6645 95.7093 52.466 97.1761C52.4226 97.4973 52.4906 97.8288 52.4055 98.1432C52.3013 98.5285 51.9796 98.8422 51.8652 99.2251C51.6486 99.9509 52.2267 100.673 52.8619 101.161C53.4971 101.65 54.2547 102.071 54.6019 102.754C54.969 103.477 54.7887 104.319 54.908 105.106C55.1686 106.824 56.8187 108.098 58.5168 108.919C59.0342 109.169 59.5898 109.411 59.9246 109.845C60.3617 110.412 60.3182 111.159 60.4641 111.836C60.8216 113.494 62.3735 114.86 62.4175 116.548C62.4488 117.748 61.7071 118.837 61.2641 119.969C60.8487 121.054 60.6984 122.206 60.8234 123.348C60.9484 124.49 61.3458 125.594 61.9884 126.585C62.3199 127.089 62.7163 127.563 62.9508 128.109C63.3692 129.082 63.2334 130.189 63.6192 131.174C64.1292 132.476 65.5307 133.551 65.3966 134.925C66.0328 136.114 67.4378 136.698 68.8506 137.051L71.3826 137.685C71.8675 137.806 72.3741 137.929 72.8678 137.841C73.3614 137.753 73.8326 137.384 73.8198 136.932C72.5781 136.68 71.2967 136.412 70.2731 135.732C69.2495 135.051 68.5484 133.84 68.9367 132.75C69.1168 132.244 69.4999 131.66 69.1357 131.243C68.9271 131.003 68.5458 130.941 68.3106 130.723C67.9437 130.382 68.0697 129.811 68.3335 129.4C68.5973 128.99 68.9785 128.623 69.0849 128.159C69.1386 127.899 69.1027 127.631 68.9821 127.39C68.8614 127.149 68.6617 126.947 68.4098 126.811C68.8793 126.652 69.3063 126.406 69.6631 126.088C69.9927 125.75 70.1449 125.228 69.8856 124.843C70.6555 124.931 71.5645 124.974 72.0699 124.444C72.4735 124.021 72.4458 123.389 72.2863 122.85C72.1268 122.312 71.8573 121.789 71.8489 121.231C73.6249 121.307 75.4049 121.253 77.1711 121.069C76.9157 120.295 76.3353 119.642 75.553 119.247C76.3529 119.125 77.0817 118.264 77.3344 117.57C77.5872 116.877 77.5227 116.122 77.3665 115.406C77.3065 115.221 77.2983 115.027 77.3426 114.839C77.4326 114.58 77.7147 114.423 77.9756 114.288L81.9462 112.237C82.1831 112.131 82.3979 111.988 82.5811 111.816C82.9971 111.376 82.9355 110.713 82.7225 110.169C82.5095 109.624 82.1683 109.112 82.0863 108.54C81.8408 106.828 83.8785 105.6 84.5662 103.988C84.8361 103.356 84.8911 102.668 84.9433 101.993C84.9994 101.267 85.0036 100.424 84.3839 99.9562C83.7899 99.5079 82.8618 99.6079 82.2403 99.1909C81.6705 98.8086 81.4739 98.066 80.8513 97.7572C80.286 97.4767 79.5772 97.6551 78.9484 97.5232C77.8413 97.291 77.1447 96.1435 76.014 96.0372C75.3761 95.9773 74.6541 96.2577 74.1313 95.9236C73.6706 95.6292 73.6521 95.0375 73.5644 94.5354C73.4107 93.755 72.9948 93.0358 72.3727 92.4745C71.7506 91.9132 70.9522 91.5369 70.0849 91.3961C69.4272 91.3013 68.7113 91.3373 68.1517 91.0122C67.5851 90.6831 67.3253 90.0668 66.8803 89.611C66.163 88.8763 65.0333 88.6153 63.975 88.3915L59.6703 87.4815C58.9062 87.3199 57.9212 87.2342 57.5111 87.8362C57.3898 88.0654 57.3038 88.3085 57.2557 88.5587C57.1021 89.0112 56.7929 89.4083 56.3725 89.6928C55.9521 89.9773 55.4423 90.1347 54.9162 90.1423C54.5555 89.5889 53.971 89.1821 53.2848 89.007C52.8483 88.8976 52.3811 88.8855 51.9648 88.7245C51.738 88.625 51.5363 88.4849 51.3719 88.3128C51.2074 88.1407 51.0838 87.9403 51.0084 87.7238C50.9331 87.5072 50.9077 87.2791 50.9338 87.0535C50.9599 86.8278 51.037 86.6093 51.1602 86.4113C51.4084 86.0139 51.5042 85.5541 51.433 85.1029C51.3617 84.6516 51.1272 84.234 50.7658 83.9145C50.0338 83.3235 48.9748 83.1807 47.9932 83.2398C47.7362 82.7353 48.166 82.1661 48.6292 81.7995C49.0924 81.4329 49.6549 81.0725 49.7558 80.525C49.9145 79.6639 48.6927 79.0098 47.765 79.2666C46.8373 79.5233 46.2452 80.3337 45.8538 81.1325C45.6292 81.5908 45.4383 82.0734 45.0841 82.4599C44.7299 82.8463 44.1594 83.123 43.6198 82.999C42.856 82.8234 42.561 82.0073 42.3919 81.3147C42.1651 80.3855 41.9369 79.4434 41.9845 78.4931C42.032 77.5427 42.3882 76.5669 43.1675 75.9236C44.4373 74.8752 46.3852 74.978 48.0989 75.1452C47.694 74.735 47.7941 74.0436 48.2273 73.6574C48.4559 73.4747 48.7307 73.3449 49.0278 73.2793C49.3249 73.2136 49.6353 73.2141 49.932 73.2808C50.4484 73.3774 50.9136 73.6276 51.2527 73.9909C51.7397 74.5249 51.8782 75.2458 52.2463 75.8519C52.6144 76.458 53.4421 76.9749 54.1195 76.6498C54.7047 76.3689 54.7975 75.6392 54.6519 75.0573C54.5063 74.4753 54.197 73.9095 54.2497 73.3149C54.3504 72.1803 55.6581 71.4974 56.8121 71.0301C57.9662 70.5628 59.2876 69.9344 59.4704 68.8082C59.4767 68.5877 59.5229 68.3696 59.6074 68.1625C59.7353 67.9796 59.9132 67.8291 60.1241 67.7255C63.4921 65.7238 66.9161 63.6976 70.7657 62.6038C70.9659 62.5469 70.9894 62.6101 71.1935 62.5656C71.4792 62.4171 71.2899 62.0063 71.016 61.8409C70.7422 61.6754 70.3761 61.5485 70.3066 61.2585C70.2555 61.0452 70.3952 60.8359 70.4315 60.6202C70.5207 60.0903 69.8158 59.601 69.2683 59.8129C68.9591 59.4446 69.571 59.0166 70.0657 58.8941C71.5513 58.5264 73.0764 58.3024 74.6149 58.2258C74.7924 58.2004 74.9743 58.2283 75.1325 58.305C75.3909 58.466 75.3579 58.8352 75.1748 59.065C74.9917 59.2947 74.7068 59.439 74.4786 59.6334C74.2292 59.8519 74.0514 60.1277 73.9645 60.4308C73.8776 60.7339 73.8849 61.0527 73.9856 61.3524C74.7888 61.7198 75.662 62.098 76.5516 61.9686C77.4411 61.8391 78.2307 60.9403 77.8125 60.2224C77.4232 59.5539 76.2536 59.4031 76.0525 58.6704C75.817 57.8126 77.1672 57.0497 76.8631 56.2095C76.7299 55.8415 76.322 55.6249 76.0091 55.3592C75.6395 55.0334 75.3881 54.6147 75.2879 54.1581C75.1877 53.7015 75.2434 53.2283 75.4476 52.8007C74.9379 52.8814 74.4141 52.8509 73.9202 52.7119C73.4262 52.5729 72.9766 52.3294 72.6089 52.0018C71.9299 51.3856 71.3882 50.4134 70.424 50.441C69.5392 50.4663 68.7771 51.3946 67.9497 51.1114C67.7462 51.0417 67.5316 50.8999 67.3344 50.983C67.2698 51.0208 67.2155 51.0712 67.1758 51.1306C67.136 51.1899 67.1117 51.2566 67.1049 51.3257C66.8946 52.2297 67.2563 53.2597 66.7084 54.0409C66.1123 54.8909 64.7333 55.0088 64.0105 55.7753C63.6182 56.1914 63.4662 56.7521 63.1056 57.1908C62.745 57.6295 61.9796 57.9085 61.5468 57.5262C61.7595 57.1329 61.8176 56.6864 61.7115 56.2596C61.6055 55.8329 61.3417 55.4511 60.9631 55.1766C60.5613 54.9409 60.1282 54.7514 59.6739 54.6127C59.1663 54.4194 58.6834 54.1774 58.2337 53.8908C58.0084 53.7686 57.8253 53.5924 57.7049 53.382C57.6097 53.1185 57.6225 52.8331 57.7411 52.5774C57.9605 52.0116 58.3477 51.5104 58.8607 51.128C59.3737 50.7456 59.9932 50.4965 60.6522 50.4075C61.2284 50.337 61.899 50.3619 62.2803 49.967C62.4821 49.7581 62.588 49.4422 62.8809 49.3574C63.0682 49.3235 63.2627 49.3451 63.4353 49.4188L65.5861 50.0996C65.826 50.197 66.0902 50.2363 66.3522 50.2136C66.4822 50.1978 66.6007 50.1385 66.684 50.0474C66.7673 49.9564 66.8093 49.8403 66.8014 49.7226C66.7327 49.4014 66.1831 49.2473 66.2331 48.9233C66.2611 48.8183 66.3239 48.7234 66.4131 48.6512C67.1893 47.9082 68.1385 47.3288 69.1928 46.9543C70.2472 46.5799 71.3805 46.4197 72.5117 46.4853C72.7832 46.8863 72.3539 47.3611 71.9966 47.7033C71.6394 48.0456 71.3523 48.6572 71.7843 48.9207C71.9614 49.0019 72.1583 49.0418 72.357 49.0367C72.8865 49.1011 73.4011 49.2415 73.8812 49.4524C74.6244 49.7433 75.3534 50.0616 76.0681 50.4072C76.0049 49.9834 75.9447 49.537 76.1233 49.1407C76.3019 48.7445 76.8095 48.4337 77.2529 48.588C77.6802 48.7367 77.8994 49.2456 78.3546 49.2922C78.9619 49.3544 79.2015 48.5475 78.9478 48.0474C78.6942 47.5474 78.192 47.1286 78.1501 46.5802C78.1218 46.2103 78.2783 45.7515 77.9498 45.5274C77.8328 45.4602 77.7001 45.4183 77.5621 45.4052L69.3573 44.0474C68.8701 43.9667 68.1662 44.0285 68.1446 44.4736C68.1325 44.7221 68.3793 44.9679 68.27 45.1963C68.1533 45.4401 67.7701 45.4178 67.491 45.504C67.0579 45.6378 66.8406 46.1003 66.8822 46.5105C66.9583 46.918 67.1338 47.3053 67.3961 47.6446C66.8624 47.4439 66.0544 47.407 65.5207 47.2063Z" fill="#3F3D56"/>
<path d="M58.9742 40.9426C58.4568 40.7887 57.8993 40.7815 57.3772 40.9221C56.8552 41.0627 56.3938 41.3443 56.0557 41.7287C55.9206 41.8887 55.8072 42.1092 55.9203 42.2824C56.0824 42.5307 56.4956 42.4326 56.8002 42.3438C57.2479 42.2 57.7352 42.1895 58.19 42.314C58.4761 42.4023 58.732 42.5584 59.0192 42.6434C59.1591 42.696 59.3122 42.7133 59.4622 42.6936C59.6122 42.6739 59.7534 42.6179 59.8706 42.5315C60.0678 42.3506 60.0802 42.0695 60.0805 41.8162C60.0942 41.7315 60.0866 41.6451 60.0584 41.5633C60.0302 41.4815 59.9821 41.4064 59.9175 41.3435C59.8025 41.2836 59.6733 41.2492 59.5406 41.2432C59.2434 41.1937 58.9746 41.0525 58.7808 40.8439" fill="#3F3D56"/>
<path d="M61.9326 40.2019C61.8168 40.1962 61.7014 40.2174 61.5973 40.2635C61.4933 40.3095 61.4042 40.3789 61.3386 40.4649C61.273 40.5509 61.2331 40.6506 61.2227 40.7544C61.2123 40.8583 61.2318 40.9628 61.2793 41.0579C61.6349 41.1451 62.0064 41.1669 62.3716 41.122C62.5537 41.0966 62.7234 41.0232 62.8593 40.9112C62.9951 40.7992 63.0911 40.6535 63.135 40.4925C62.7051 40.5629 62.2614 40.4867 61.8906 40.2788" fill="#3F3D56"/>
<path d="M71.8586 38.9647C70.8908 39.1498 69.9506 39.437 69.0577 39.8204C69.4787 39.9659 69.8365 40.2292 70.0785 40.5714C70.3204 40.9136 70.4338 41.3167 70.4018 41.7212C70.364 41.8765 70.3684 42.0377 70.4145 42.1912C70.5174 42.4155 70.8155 42.4996 71.0775 42.5572C71.5483 42.6861 72.04 42.7425 72.5317 42.7241C72.7776 42.7125 73.0165 42.646 73.2267 42.5305C73.4369 42.415 73.6117 42.2542 73.7353 42.0626C73.8066 41.8808 73.8902 41.7031 73.9857 41.5305C74.6138 40.6702 76.4798 41.7104 77.1542 40.8789C77.3918 40.586 77.3701 40.1451 77.6798 39.913C77.84 39.8118 78.0256 39.7481 78.22 39.7275C79.5762 39.4852 80.9462 39.3097 82.3237 39.2019C82.9764 39.1508 83.8272 38.9401 83.8326 38.3509C81.3741 37.9167 78.825 38.2251 76.5815 39.2281C75.7732 39.5922 74.7042 40.3581 73.9256 39.8754C73.634 39.6947 73.6485 39.208 73.2472 39.0048C72.837 38.797 72.294 38.8815 71.8586 38.9647Z" fill="#3F3D56"/>
<path d="M79.8985 40.3168L81.0526 40.5163C80.8402 40.5078 80.6282 40.5402 80.4308 40.6112C80.2333 40.6823 80.055 40.7904 79.9078 40.9283C79.7605 41.0663 79.6476 41.2309 79.5767 41.4111C79.5057 41.5914 79.4783 41.7832 79.4963 41.9738C80.5771 42.2984 81.7553 41.9825 82.8937 42.0256C84.0321 42.0688 85.3567 42.8001 85.1623 43.8098C85.1036 44.1151 84.9075 44.4202 85.0095 44.7162C85.0809 44.9236 85.2844 45.0708 85.3992 45.2619C85.6384 45.66 85.4472 46.1635 85.1451 46.5254C84.843 46.8873 84.4369 47.176 84.1717 47.5606C83.5121 48.5171 83.8869 49.7537 84.2798 50.8224C84.3934 51.2261 84.6032 51.6029 84.8946 51.9266C85.4767 52.4832 86.4253 52.5316 87.2748 52.5427C87.8932 52.5508 88.6015 52.5234 88.9925 52.0925C89.503 51.53 89.146 50.6524 89.4821 49.9923C89.7874 49.3927 90.5651 49.1355 91.2697 48.9531C92.5605 48.6189 93.8761 48.3347 95.0964 47.8299C96.6118 47.2031 98.028 46.2262 99.6936 46.1455C100.161 46.1229 100.64 46.1725 101.09 46.0573C101.54 45.9422 101.968 45.5922 101.933 45.1725C101.904 44.8139 101.567 44.5505 101.303 44.2802C101.04 44.0098 100.833 43.5941 101.075 43.3081L105.441 42.5747C105.131 41.8163 104.89 40.8174 105.601 40.3237C105.858 40.1455 106.201 40.0743 106.42 39.859C106.792 39.492 106.605 38.8597 106.175 38.5476C105.745 38.2354 105.164 38.163 104.614 38.1219C102.699 37.9789 100.774 38.0734 98.8562 38.1679C95.1069 38.3527 91.3577 38.5375 87.6084 38.7224C86.8537 38.7596 85.9823 38.7027 85.29 38.9343C84.704 39.1303 84.2873 39.4902 83.6171 39.6167C82.3798 39.8501 81.0182 39.6921 79.8985 40.3168Z" fill="#3F3D56"/>
<path d="M100.573 48.5205C100.455 48.5037 100.335 48.5283 100.237 48.589C100.172 48.6532 100.134 48.7354 100.128 48.8219C100.053 49.204 100.142 49.5973 100.376 49.923C100.496 50.0828 100.66 50.211 100.853 50.2942C101.046 50.3774 101.26 50.4126 101.474 50.3962C101.993 50.3366 102.376 49.9379 102.854 49.7434C103.59 49.4438 106.717 48.9768 104.554 47.9259C103.809 47.5637 103.327 47.8834 102.74 48.1219C102.071 48.4295 101.322 48.5673 100.573 48.5205Z" fill="#3F3D56"/>
<path d="M119.519 39.7235C119.266 39.8163 119.055 39.9817 118.918 40.1939C118.855 40.3017 118.84 40.4271 118.877 40.5443C118.914 40.6615 118.999 40.7615 119.116 40.8236C119.21 40.8543 119.31 40.8686 119.41 40.8656L120.437 40.8932C120.874 40.9049 121.419 40.9885 121.536 41.3666C121.623 41.6473 121.428 42.0081 121.663 42.2088C121.764 42.279 121.885 42.3216 122.013 42.3313C122.351 42.4095 122.704 42.4197 123.047 42.3613C123.795 42.1811 123.402 41.7709 123.637 41.4057C123.997 40.8469 123.935 41.1852 124.569 40.8649C125.038 40.6284 125.644 40.1994 125.252 39.5966C124.572 38.5483 120.522 39.2732 119.519 39.7235Z" fill="#3F3D56"/>
<path d="M139.789 39.1965L139.193 39.2681C137.848 39.4295 136.495 39.5924 135.2 39.9555C135.761 40.1549 136.349 40.2847 136.949 40.3414C137.279 40.3559 137.607 40.3978 137.928 40.4666C138.5 40.6197 139.077 41.0152 139.629 40.8126C139.972 40.687 140.084 40.3661 140.368 40.1961C140.564 40.0787 141.307 39.8886 141.39 39.7701C142.062 38.8119 140.305 39.1346 139.789 39.1965Z" fill="#3F3D56"/>
<path d="M142.408 41.634C141.611 42.0346 140.872 42.5213 140.207 43.0834C139.927 43.3203 139.64 43.6149 139.666 43.96C139.7 44.4186 140.243 44.6846 140.714 44.8639L142.62 45.5897C142.851 45.2966 142.64 44.8919 142.401 44.6038C142.162 44.3158 141.877 43.9825 141.983 43.6358C142.104 43.2402 142.64 43.1054 143.09 43.0372C143.823 42.9262 145.799 42.9351 145.562 41.873C145.282 40.6216 143.143 41.2642 142.408 41.634Z" fill="#3F3D56"/>
<path d="M142.024 112.455C141.843 112.927 141.826 113.484 142.139 113.897C142.492 114.36 143.197 114.532 143.807 114.415C144.414 114.269 144.955 113.956 145.355 113.52C145.72 113.154 146.02 112.74 146.245 112.292C146.559 111.594 146.78 110.865 146.905 110.12L147.497 107.325C147.629 106.701 147.624 104.786 146.347 105.41C145.999 105.58 145.191 106.926 144.826 107.308C144.167 107.995 144.08 108.663 143.733 109.496C143.299 110.54 142.426 111.41 142.024 112.455Z" fill="#3F3D56"/>
<path d="M209.449 126.757C209.031 126.611 208.625 126.437 208.236 126.238C207.845 127.205 207.637 128.224 207.621 129.252L210.479 127.797C210.909 127.579 211.396 127.275 211.387 126.83C211.391 126.775 211.378 126.721 211.35 126.672C211.323 126.623 211.281 126.581 211.229 126.552C211.165 126.529 211.096 126.522 211.029 126.531C210.605 126.563 210.218 126.75 209.818 126.881C209.419 127.011 208.951 127.08 208.584 126.887" fill="#3F3D56"/>
<path d="M224.527 127.621C224.213 127.698 223.907 127.797 223.61 127.917C222.954 128.217 222.508 128.787 221.918 129.182C221.353 129.561 220.673 129.768 220.005 129.97C219.809 130.126 219.899 130.441 220.113 130.578C220.342 130.695 220.604 130.748 220.867 130.73C221.561 130.744 222.291 130.75 222.899 130.449C223.241 130.249 223.561 130.021 223.855 129.766C224.566 129.233 225.418 128.882 226.263 128.542C226.57 128.438 226.854 128.285 227.102 128.091C227.632 127.621 227.67 126.896 226.905 126.736C226.287 126.606 225.115 127.45 224.527 127.621Z" fill="#3F3D56"/>
<path d="M231.189 123.707C231.223 123.384 231.176 123.058 231.049 122.753C230.923 122.449 230.721 122.174 230.46 121.95C230.452 122.597 230.43 123.287 230.025 123.822C229.737 124.203 229.285 124.461 228.969 124.824C228.653 125.187 228.513 125.763 228.883 126.081C229.12 126.243 229.409 126.333 229.706 126.336C230.444 126.414 231.298 126.458 231.815 125.979C232.097 125.717 232.235 125.33 232.579 125.137C232.707 125.089 232.822 125.015 232.914 124.921C233.057 124.718 232.831 124.45 232.576 124.377C232.322 124.304 232.042 124.338 231.786 124.269C231.53 124.199 231.296 123.941 231.427 123.731" fill="#3F3D56"/>
<path d="M219.348 99.9815C218.961 100.066 218.56 100.087 218.165 100.044C217.508 99.9356 216.997 99.4906 216.467 99.1256C215.207 98.2626 213.675 97.7812 212.091 97.7505C210.651 97.7261 209.196 98.0771 207.782 97.8322C207.874 98.2946 208.314 98.6414 208.783 98.8476C209.253 99.0537 209.771 99.1574 210.243 99.3594C210.998 99.686 211.597 100.247 211.93 100.938C212.082 101.257 212.178 101.604 212.408 101.883C212.878 102.452 213.77 102.577 214.557 102.53C215.582 102.47 216.654 102.204 217.608 102.548C218.338 102.811 218.861 103.386 219.471 103.833C220.08 104.279 220.939 104.611 221.639 104.289C220.912 104.077 220.279 103.662 219.833 103.104C219.387 102.546 219.15 101.874 219.159 101.187C219.845 101.244 221.823 101.222 221.716 100.172C221.626 99.2834 219.938 99.8855 219.348 99.9815Z" fill="#3F3D56"/>
<path d="M210.367 107.215C210.489 106.614 211.156 106.083 210.948 105.501C210.804 105.099 210.285 104.9 209.816 104.89C209.346 104.88 208.884 105.006 208.414 105.018C208.109 105.003 207.802 105.007 207.497 105.03C206.564 105.168 205.989 106.047 205.111 106.359C204.576 106.549 203.976 106.513 203.42 106.644C202.158 106.943 201.36 108.015 200.478 108.879C199.053 110.27 197.197 111.243 195.149 111.674C194.432 111.823 193.661 111.919 193.091 112.338C192.336 112.893 192.15 113.844 191.982 114.708C191.518 117.093 190.808 119.435 189.863 121.703L192.859 122.047C193.428 122.112 194.018 122.176 194.567 122.024C194.966 121.889 195.344 121.708 195.691 121.486C197.025 120.741 198.519 120.256 200.074 120.063C200.859 119.966 201.681 119.948 202.417 120.211C203.154 120.473 203.785 121.068 203.847 121.778C204.165 121.689 204.505 121.679 204.829 121.75C205.152 121.821 205.449 121.969 205.686 122.18C206.155 122.61 206.463 123.161 206.564 123.757C206.643 124.125 206.722 124.567 207.103 124.721C207.413 124.848 207.769 124.712 208.108 124.687C209.26 124.604 210.216 125.812 211.348 125.604C212.562 125.381 212.86 123.746 214.044 123.418C214.725 123.23 215.679 123.459 216.005 122.89C216.292 122.388 215.719 121.809 215.778 121.248C215.851 120.556 216.758 120.263 217.457 119.968C219.868 118.95 221.012 116.032 219.844 113.88C219.152 112.605 217.79 111.601 217.538 110.2C217.345 109.123 217.817 107.866 217.053 107.017C216.664 106.586 216.006 106.348 215.775 105.833C215.629 105.509 215.688 105.141 215.609 104.798C215.531 104.456 215.199 104.098 214.823 104.187C213.732 104.444 213.383 107.476 212.799 108.213C211.911 109.333 210.087 108.595 210.367 107.215Z" fill="#3F3D56"/>
<path d="M190.194 101.127C189.821 101.033 189.414 100.94 189.057 101.075C188.699 101.209 188.491 101.681 188.777 101.915C191.021 101.837 193.279 101.759 195.504 102.033C198.067 102.348 200.603 103.13 203.178 102.9C201.707 102.51 200.212 102.198 198.701 101.966L196.181 101.533C195.505 101.406 194.821 101.311 194.134 101.249C192.696 101.142 191.608 101.484 190.194 101.127Z" fill="#3F3D56"/>
<path d="M192.441 94.0991C192.254 94.0852 192.024 94.0731 191.927 94.2171C191.835 94.3548 191.941 94.5366 191.891 94.6909C191.823 94.9017 191.516 94.9556 191.275 94.9269C191.033 94.8982 190.771 94.8294 190.557 94.9343C190.448 95.0011 190.366 95.0977 190.324 95.2098C190.282 95.3218 190.281 95.4433 190.321 95.5558C190.409 95.7792 190.551 95.9824 190.736 96.1506C191.053 96.5097 191.414 96.8355 191.813 97.1216C192.584 97.6335 193.629 97.8802 194.114 98.6233C194.183 98.7674 194.288 98.8949 194.422 98.9954C194.655 99.1283 194.959 99.0272 195.21 98.924L196.09 98.5624C196.249 98.5111 196.39 98.4245 196.502 98.3108C196.703 98.0655 196.579 97.7167 196.41 97.4524C196.242 97.1881 196.026 96.9146 196.062 96.6116C196.126 96.0713 196.899 95.8646 197.216 95.4024C197.537 94.9364 197.328 94.3361 197.365 93.7893C197.408 93.15 197.855 92.3183 197.136 91.8405C196.525 91.4345 195.941 91.8097 195.503 92.2579C194.578 93.2032 194.141 94.2268 192.441 94.0991Z" fill="#3F3D56"/>
<path d="M197.782 84.5457C198.083 85.0631 198.709 85.3718 199.037 85.8756C199.392 86.4217 199.351 87.1273 199.737 87.6566C200.132 88.1997 200.927 88.488 201.149 89.1057C201.391 89.78 200.842 90.5996 201.279 91.1888C201.361 91.2852 201.464 91.3652 201.582 91.4238C201.7 91.4825 201.83 91.5185 201.964 91.5296C202.098 91.5406 202.233 91.5266 202.361 91.4882C202.489 91.4498 202.606 91.388 202.706 91.3067C202.89 91.126 202.989 90.8876 202.981 90.6424C202.973 90.3972 202.859 90.1645 202.663 89.9939C202.403 89.7814 202.031 89.6896 201.815 89.4414C201.702 89.2982 201.627 89.1338 201.595 88.9607C201.478 88.4614 201.496 87.9437 201.651 87.4524C201.708 87.3277 201.723 87.1902 201.693 87.0579C201.595 86.8033 201.212 86.7852 200.943 86.6671C200.332 86.3988 200.347 85.6232 200.453 85.0191C200.382 85.4213 198.789 84.7373 198.623 84.5095C198.291 84.057 198.472 83.1842 198.406 82.6841C197.691 82.9941 197.415 83.9132 197.782 84.5457Z" fill="#3F3D56"/>
<path d="M181.736 92.5055C181.442 92.2096 180.999 91.8999 180.605 92.0784C180.305 92.2146 180.222 92.5888 180.34 92.8724C180.483 93.1479 180.704 93.3849 180.981 93.56C181.802 94.1692 182.687 94.719 183.403 95.4271C184.686 96.6944 185.365 98.4045 186.759 99.5719C187.04 99.8426 187.411 100.023 187.816 100.086C188.223 100.12 188.679 99.8864 188.725 99.5218C188.764 99.2215 188.531 98.9528 188.304 98.7302C187.762 98.2003 187.169 97.7125 186.657 97.1588C186.421 96.9461 186.273 96.6673 186.237 96.3685C186.234 96.0703 186.536 95.7583 186.858 95.8321C186.467 95.7423 186.177 95.157 185.604 95.047C185.125 94.9551 185.009 95.2218 184.439 95.0019C183.351 94.5824 182.498 93.2723 181.736 92.5055Z" fill="#3F3D56"/>
<path d="M207.291 63.6871C206.979 63.6037 206.672 63.5052 206.372 63.3919C205.565 63.174 204.496 63.7077 204.604 64.4598C204.675 64.9594 205.192 65.2963 205.478 65.7297C205.901 66.3724 205.789 67.1876 205.566 67.9074C205.511 68.1302 205.407 68.3409 205.26 68.527C205.055 68.7234 204.809 68.8823 204.537 68.9951C203.446 69.545 202.485 70.2798 201.705 71.1587C201.62 71.2399 201.561 71.34 201.534 71.4486C201.495 71.7025 201.779 71.8875 201.94 72.0993C202.296 72.5697 202.039 73.2027 202.074 73.771C202.068 73.8514 202.086 73.9317 202.125 74.0042C202.163 74.0768 202.222 74.1393 202.295 74.1857C202.51 74.2839 202.765 74.1172 202.881 73.9275C203.267 73.2979 202.976 72.2874 203.701 71.9838C203.838 71.9264 204.005 71.9022 204.096 71.7939C204.241 71.622 204.101 71.3676 204.175 71.1622C204.285 70.8538 204.754 70.84 205.114 70.8536C205.734 70.877 206.354 70.8027 206.945 70.6344C207.178 70.5847 207.388 70.475 207.552 70.3186C207.768 70.0754 207.749 69.7296 207.706 69.4204C207.489 67.8789 206.946 66.389 206.106 65.0311C206.743 65.1042 207.436 65.1676 207.985 64.8692C208.293 64.702 208.662 64.2023 208.509 63.8622C208.268 63.3243 207.832 63.777 207.291 63.6871Z" fill="#3F3D56"/>
<path d="M125.662 72.1651C125.738 72.5326 125.813 72.9196 125.679 73.2736C125.545 73.6275 125.123 73.9232 124.726 73.8148C124.417 73.7306 124.238 73.4514 124.019 73.2386C122.8 72.0548 120.049 72.7402 119.296 71.2756C118.988 70.6779 119.197 69.9618 118.988 69.3309C118.855 68.9662 118.592 68.6514 118.239 68.4358C117.887 68.2203 117.464 68.1162 117.038 68.14C116.65 68.1904 116.272 68.2919 115.917 68.4411C113.535 69.2988 111.035 69.8612 108.485 70.1127C108.001 70.1393 107.521 70.2177 107.057 70.3464C106.01 70.6878 105.295 71.5608 104.786 72.4516C104.276 73.3425 103.901 74.3069 103.218 75.0984C102.501 75.9302 101.495 76.5126 100.558 77.1427C100.196 77.352 99.8955 77.6355 99.6799 77.9699C99.4766 78.3452 99.4881 78.7818 99.5038 79.1991L99.6955 84.2669C99.7201 84.9188 99.7511 85.5939 100.075 86.1773C100.481 86.9057 101.281 87.3828 101.836 88.0263C102.403 88.6876 102.698 89.5046 102.671 90.3391C102.66 90.6746 102.623 91.0714 102.913 91.2821C103.09 91.3852 103.297 91.4387 103.507 91.4358L111.13 91.9969C112.471 92.0956 113.957 92.2579 114.832 93.1766C115.246 93.6102 115.577 94.2338 116.21 94.2803C116.482 94.3002 116.746 94.2 117.017 94.1807C117.702 94.1319 118.304 94.5995 118.684 95.1145C119.259 95.8994 119.52 96.8368 119.424 97.7727C119.362 98.3602 119.159 98.9314 119.115 99.5202C118.949 101.761 121.061 103.707 121.102 105.953C121.126 107.273 120.429 108.507 119.749 109.678C120.846 111.173 119.948 113.163 120.385 114.91C120.799 116.567 122.336 117.865 122.719 119.528C122.894 120.29 122.904 121.227 123.651 121.619C123.979 121.763 124.342 121.829 124.706 121.809C126.901 121.833 129.071 121.389 131.038 120.513C131.962 120.101 132.919 119.486 133.08 118.57C133.21 117.832 132.794 117.006 133.217 116.362C133.717 115.604 134.996 115.665 135.731 115.082C136.923 114.136 135.993 112.333 136.476 110.971C136.911 109.747 138.405 109.097 139.146 107.998C139.437 107.525 139.647 107.015 139.766 106.486C140.106 105.22 140.317 103.93 140.397 102.63C140.417 101.84 140.482 101.051 140.591 100.268C141.39 95.8049 146.296 92.8167 147.888 88.5296C148.041 88.1202 148.112 87.5748 147.707 87.3432C147.467 87.2401 147.194 87.2144 146.936 87.2706L143.422 87.669C142.985 87.7185 142.523 87.7647 142.122 87.6017C141.721 87.4386 141.434 86.9826 141.646 86.6363C142.243 85.6641 141.016 84.4355 140.47 83.4391C139.001 80.7563 137.252 78.2052 135.246 75.8201C135.118 75.6974 135.037 75.5404 135.017 75.3729L136.014 75.4028C135.678 74.3164 135.122 73.1276 133.949 72.7302C133.287 72.5062 132.555 72.5837 131.849 72.6184C129.828 72.7176 127.662 72.4432 125.662 72.1651Z" fill="#3F3D56"/>
<path d="M131.851 47.6834C132.38 48.1885 132.972 48.724 133.738 48.812C135.089 48.9675 136.061 47.7106 136.68 46.6189C136.702 46.8972 136.845 47.1565 137.077 47.3417C137.31 47.5268 137.613 47.6232 137.923 47.6103C138.257 47.5598 138.575 47.4478 138.858 47.2814C141.536 45.9654 144.535 45.2681 147.587 45.2522C147.557 45.0443 147.615 44.8341 147.748 44.662C147.881 44.4899 148.08 44.3681 148.306 44.3203C148.927 44.2096 149.486 44.692 149.785 45.1931C150.084 45.6943 150.271 46.2751 150.746 46.6502C151.222 47.0252 152.143 47.0089 152.33 46.4657C152.511 45.9443 151.907 45.4996 151.405 45.1922C150.903 44.8847 150.374 44.3157 150.712 43.862C153.276 43.3516 155.856 42.8393 158.479 42.7378C158.926 42.7518 159.371 42.6829 159.787 42.5353C160.187 42.3587 160.505 41.9579 160.397 41.5689C159.825 41.69 159.225 41.6549 158.675 41.4683C158.124 41.2816 157.648 40.9518 157.307 40.5209C160.948 40.2507 164.82 40.0204 168.046 41.5609C168.433 42.3083 166.46 42.9302 166.988 43.6043C167.156 43.8193 167.493 43.8445 167.786 43.8494C170.028 43.8869 172.282 43.9236 174.499 43.6192C175.309 43.5079 176.127 43.3509 176.941 43.4411C178.295 43.5913 179.454 44.4042 180.786 44.6692C181.329 44.7771 181.937 44.7807 182.394 44.497C182.851 44.2133 183.048 43.5672 182.673 43.1984C183.928 42.0924 186.011 42.3665 187.666 42.896C189.321 43.4255 190.889 44.2794 192.641 44.3974C193.898 44.482 195.172 44.1781 196.413 44.3713C197.193 44.4927 197.919 44.8048 198.682 44.9965C200.124 45.3592 201.649 45.2827 203.146 45.3001C206.967 45.3464 210.745 46.0216 214.295 47.2923C214.756 47.4275 215.18 47.6523 215.534 47.9508C215.864 48.2689 216.033 48.7632 215.811 49.1499L212.143 48.668C212.488 49.2798 213.382 49.3841 214.109 49.5951C214.835 49.8062 215.587 50.5273 215.151 51.0903C214.364 50.865 213.651 51.5724 213.254 52.2232C212.857 52.874 212.372 53.6535 211.548 53.6931C210.81 53.7287 209.917 53.1633 209.436 53.6681C210.1 54.4223 210.67 55.2409 211.133 56.1085C211.608 56.9993 211.947 58.1216 211.304 58.923C211.203 59.0661 211.05 59.1731 210.871 59.2255C210.346 59.345 210.005 58.7676 209.629 58.4177C209.154 57.9767 208.437 57.8518 207.795 57.6449C207.153 57.4381 206.476 57.0313 206.426 56.4195C206.395 56.0388 206.618 55.6849 206.783 55.3331C207.059 54.7401 207.18 54.0977 207.136 53.4559C207.1 52.9395 206.939 52.4023 206.527 52.0415C206.114 51.6807 205.403 51.5662 204.96 51.8967C204.753 52.0509 204.588 52.2975 204.319 52.3067C203.845 52.3231 203.482 51.5799 203.1 51.8336C203.145 52.1039 203.083 52.3797 202.924 52.6129C201.786 53.5029 200.038 53.1264 198.571 53.4408C197.874 53.6203 197.206 53.8827 196.585 54.2208C196.353 54.3101 196.155 54.4592 196.017 54.6493C195.834 54.9694 196.036 55.3792 196.359 55.592C196.701 55.7808 197.086 55.8989 197.485 55.9377C199.274 56.2423 201.088 56.7139 202.5 57.747C203.912 58.7801 204.838 60.4879 204.391 62.0748L200.864 59.044C200.998 60.3166 201.074 61.5926 201.092 62.8722C201.115 63.122 201.077 63.3733 200.981 63.6085C200.729 64.108 200.048 64.276 199.451 64.3863C199.284 64.4147 199.127 64.4743 198.988 64.5614C198.85 64.6484 198.733 64.7608 198.646 64.8912C198.559 65.0216 198.504 65.1671 198.484 65.3181C198.464 65.4691 198.48 65.6222 198.53 65.7673C198.743 66.3892 199.272 66.8741 199.756 67.3573C200.24 67.8404 200.717 68.3895 200.781 69.0376C200.844 69.6856 200.3 70.4161 199.579 70.371C199.032 70.3369 198.626 69.8964 198.392 69.4502C198.159 69.0039 198.02 68.5067 197.67 68.1275C196.608 66.9797 194.225 67.4715 193.274 66.2479C193.032 66.4951 192.864 66.7939 192.786 67.1159C192.708 67.4379 192.723 67.7725 192.83 68.0878C193.272 67.8388 193.877 68.0702 194.21 68.432C194.542 68.7938 194.699 69.2576 194.96 69.6639C195.312 70.2122 195.872 70.6983 195.921 71.33C195.908 71.5688 195.913 71.8082 195.935 72.0465C196.022 72.4292 196.382 72.704 196.631 73.0239C197.211 73.7682 197.183 74.7908 196.809 75.6354C196.435 76.4799 195.763 77.1856 195.097 77.8698C193.935 79.0649 192.748 80.2529 191.37 81.2454C190.977 81.5286 190.557 81.807 190.312 82.2029C190.067 82.5988 190.055 83.1546 190.431 83.4557C190.162 83.4678 189.679 83.587 189.41 83.5991C189.315 82.6275 189.294 81.6512 189.348 80.6771C188.285 80.2182 187.141 81.4472 187.278 82.5003C187.415 83.5533 188.262 84.3984 188.865 85.3095C189.306 85.9757 189.634 86.7526 189.487 87.5165C189.339 88.2805 188.581 88.9852 187.722 88.9179C186.356 88.8107 185.785 87.0469 184.432 86.8451C184.312 86.8199 184.187 86.8311 184.076 86.8769C183.875 86.976 183.84 87.2176 183.829 87.4234C183.773 88.4333 183.726 89.4833 184.164 90.4144C184.805 91.7765 186.462 92.9205 186.114 94.3663C184.242 93.5837 183.269 91.6956 182.827 89.882C182.385 88.0684 182.311 86.1645 181.519 84.4501C180.918 85.1434 179.653 84.5702 179.104 83.8428C178.583 83.1532 178.262 82.3554 177.756 81.6565C177.251 80.9576 176.476 80.3318 175.55 80.2933C174.579 80.253 173.737 80.8523 172.996 81.4185C172.387 81.8841 171.762 82.368 171.406 83.0116C170.888 83.9482 171.024 85.0523 170.999 86.0981C170.972 87.2287 170.705 88.4216 169.848 89.2493C168.992 90.077 167.41 90.3653 166.465 89.6193C165.972 89.2299 165.733 88.648 165.52 88.0895C164.494 85.3973 163.64 82.6547 162.961 79.875C162.803 80.5094 162.183 81.3271 161.591 80.9534C161.459 80.853 161.351 80.7283 161.276 80.5877C160.172 78.9051 158.128 77.8959 156.062 77.2908C153.997 76.6857 151.824 76.4034 149.781 75.7384C148.636 75.3656 147.543 74.8758 146.523 74.2788C146.263 74.6225 146.111 75.0231 146.083 75.4381C146.056 75.8531 146.153 76.2671 146.366 76.6362C146.819 77.3577 147.845 77.7751 148.722 77.5229C149.176 77.3926 149.559 77.1094 150.009 76.9696C150.459 76.8297 151.063 76.8984 151.26 77.2883C151.448 77.6615 151.163 78.113 151.304 78.5027C151.52 79.0962 152.515 79.1419 152.863 79.682C153.122 80.0839 152.909 80.6175 152.539 80.9417C152.169 81.266 151.676 81.4438 151.225 81.6695C149.76 82.4019 148.719 83.6521 147.439 84.6248C146.159 85.5975 144.353 86.3077 142.828 85.6838C143.192 84.028 140.998 82.8124 140.595 81.1642C140.462 80.6217 140.531 80.0454 140.341 79.5167C140.067 78.7513 139.312 78.225 138.692 77.6449C137.941 76.9337 137.356 76.0944 136.971 75.1764C136.586 74.2584 136.41 73.2805 136.452 72.3002C136.485 71.619 136.624 70.9267 136.452 70.2627C136.279 69.5988 135.668 68.9561 134.911 68.9862C133.181 69.0549 131.001 69.1706 130.094 67.8444C129.77 67.371 129.629 66.6777 130.097 66.315C130.427 66.0592 130.915 66.0833 131.349 66.1217L135.247 66.4665C136.159 66.5472 137.144 66.6138 137.926 66.1851C138.709 65.7565 139.048 64.6187 138.323 64.1144C137.794 63.746 136.846 63.766 136.692 63.1801C136.564 62.6922 137.164 62.1386 136.84 61.7308C136.607 61.4385 136.085 61.5196 135.768 61.7388C135.451 61.9579 135.221 62.2785 134.866 62.4444C134.244 62.7355 133.501 62.4585 132.832 62.2702C132.163 62.0819 131.266 62.0659 130.941 62.6248C130.578 63.25 131.263 64.0691 130.903 64.6955C130.427 65.5237 128.814 65.0522 128.145 65.7646C127.377 66.582 128.667 67.8009 128.408 68.8452C128.078 68.9924 127.71 69.06 127.342 69.0414C126.974 69.0228 126.617 68.9186 126.307 68.7391C126.002 68.5525 125.759 68.2951 125.604 67.9943C125.449 67.6934 125.387 67.3603 125.426 67.0304C125.49 66.5606 125.762 66.0811 125.579 65.6372C125.432 65.2782 125.031 65.0646 124.659 64.8795L120.871 62.997C120.519 63.5837 120.964 64.3111 121.52 64.7518C122.076 65.1925 122.772 65.5244 123.138 66.1043C123.369 66.5061 123.42 66.9721 123.282 67.4071C123.144 67.8421 122.827 68.2133 122.395 68.4449C122.341 68.4785 122.279 68.5012 122.214 68.5114C122.149 68.5215 122.083 68.519 122.019 68.5038C121.959 68.4719 121.906 68.4294 121.864 68.3788C121.823 68.3282 121.792 68.2706 121.776 68.2093C121.107 66.6712 120.104 65.1546 118.5 64.3511C116.895 63.5476 114.59 63.7128 113.538 65.0664C113.288 65.3878 113.121 65.7543 112.903 66.0942C111.747 67.9001 109.267 68.7552 106.951 68.6994C106.724 68.7106 106.499 68.663 106.301 68.5621C105.927 68.3296 105.944 67.8362 106.001 67.4303L106.244 65.7077C106.293 65.3618 106.364 64.9794 106.668 64.7635C107.098 64.4591 107.717 64.6512 108.263 64.6441C108.677 64.6267 109.075 64.4952 109.403 64.2675C109.731 64.0397 109.974 63.7268 110.097 63.371C110.208 63.0117 110.207 62.6322 110.095 62.2732C109.984 61.9143 109.765 61.5896 109.463 61.3341C109.213 61.1225 108.877 60.8567 109.009 60.5715C109.062 60.4926 109.133 60.4251 109.218 60.3737C109.303 60.3222 109.399 60.2882 109.501 60.2738C110.482 60.0175 111.519 59.9503 112.485 59.6478C113.45 59.3453 114.386 58.7264 114.615 57.8304C114.685 57.5558 114.717 57.2232 114.991 57.0871C115.128 57.0348 115.276 57.0077 115.426 57.0072C115.949 56.9402 116.425 56.6995 116.761 56.3325C117.097 55.9654 117.268 55.4985 117.24 55.0238C117.703 54.7331 118.351 54.9469 118.798 55.2561C119.246 55.5653 119.641 55.9738 120.186 56.1071C121.2 56.3555 122.181 55.5474 123.233 55.5437C123.675 55.5421 124.133 55.6828 124.549 55.5479C124.971 55.4112 125.223 55.0336 125.547 54.7546C125.87 54.4756 126.438 54.3055 126.737 54.606L126.483 52.9103C126.995 53.0267 127.53 53.0432 128.05 52.9586C128.57 52.874 129.065 52.6903 129.499 52.4198L126.209 51.4201C126.095 51.3943 125.989 51.3435 125.902 51.2721C125.663 51.0405 125.9 50.6795 126.095 50.4162C126.56 49.7864 126.638 48.7488 125.873 48.4352C125.351 48.2211 124.751 48.4781 124.25 48.7294L121.849 49.9335C121.772 50.344 122.331 50.5767 122.676 50.8532C122.886 51.0205 123.034 51.2408 123.101 51.4851C123.169 51.7295 123.153 51.9865 123.055 52.2224C122.957 52.4583 122.782 52.6621 122.553 52.8069C122.324 52.9518 122.051 53.031 121.771 53.034C121.93 53.2189 122.039 53.4334 122.093 53.6617C122.146 53.8899 122.142 54.126 122.08 54.3526L120.465 54.4571C120.283 54.4899 120.095 54.4568 119.941 54.3651C119.768 54.2271 119.791 53.9852 119.751 53.7805C119.654 53.2865 119.117 52.9402 118.568 52.8514C118.019 52.7626 117.457 52.8764 116.913 52.9888C116.683 53.0635 116.429 53.0582 116.202 52.974C116.072 52.8981 115.973 52.7859 115.921 52.6547C115.683 52.135 115.905 51.5242 116.288 51.0797C116.671 50.6353 117.195 50.3104 117.666 49.9404C118.791 49.0524 119.618 47.899 120.053 46.6106C120.942 46.2754 121.863 45.8201 122.752 45.485C124.124 44.8606 125.661 44.5927 127.192 44.7113L130.205 44.763C131.096 44.7783 132.012 44.798 132.837 45.1037C133.661 45.4095 134.386 46.0707 134.443 46.8712C134.46 46.9619 134.451 47.0549 134.418 47.1417C134.384 47.2285 134.326 47.3061 134.25 47.3673C134.133 47.4244 134.001 47.4512 133.869 47.4445C133.037 47.4708 132.683 47.6571 131.851 47.6834Z" fill="#3F3D56"/>
<path d="M107.843 56.1729C107.961 56.0727 108.045 55.9453 108.088 55.8046C108.13 55.664 108.129 55.5156 108.083 55.3757C107.797 55.2763 107.486 55.2508 107.184 55.302C106.882 55.3532 106.603 55.4791 106.376 55.6656C106.198 55.8279 106.044 56.0107 105.919 56.2093C105.523 56.79 105.173 57.4837 105.403 58.1328C105.421 58.2036 105.455 58.2703 105.503 58.3291C105.551 58.3878 105.611 58.4374 105.681 58.4749C105.783 58.512 105.894 58.5276 106.005 58.5205C106.441 58.52 106.876 58.4959 107.309 58.4483C107.575 58.4191 107.884 58.3516 107.986 58.1292C108.121 57.8369 107.795 57.5061 107.89 57.2014C107.953 57.0651 108.047 56.9428 108.168 56.8429C108.228 56.7926 108.274 56.7305 108.303 56.6614C108.331 56.5924 108.341 56.5183 108.332 56.4451C108.294 56.3021 108.05 56.221 107.963 56.3452" fill="#3F3D56"/>
<path d="M110.104 53.5367C109.717 53.4567 109.318 53.4342 108.922 53.4699C108.835 53.4676 108.748 53.4853 108.67 53.5214C108.595 53.5714 108.54 53.6425 108.515 53.7236C108.432 53.9646 108.452 54.2251 108.573 54.4532C108.693 54.6813 108.905 54.8602 109.165 54.9542C109.307 54.9836 109.443 55.0327 109.568 55.0999C109.903 55.3332 109.689 55.81 109.753 56.1863C109.824 56.6088 110.279 56.9634 110.195 57.3841C110.13 57.7155 109.736 57.9779 109.799 58.3097C109.866 58.6572 110.356 58.7616 110.747 58.7895C110.973 58.8251 111.206 58.8011 111.418 58.7203C111.63 58.5898 111.781 58.3933 111.842 58.1687C112.002 57.7403 112.069 57.2884 112.04 56.8373C112.038 56.6321 111.981 56.4304 111.873 56.2497C111.755 56.1065 111.625 55.9721 111.483 55.8479C110.734 55.0646 111.522 53.8962 110.104 53.5367Z" fill="#3F3D56"/>
<path opacity="0.8" d="M208.572 114.901C208.572 114.901 151.22 85.2939 126.529 90.9036C126.529 90.9036 74.2022 95.968 68.1378 107.109C68.1378 107.109 51.504 60.3619 45.4396 58.8036" stroke="#6C63FF" stroke-width="2" stroke-miterlimit="10"/>
<path opacity="0.8" d="M68.1378 107.109C77.7542 84.0473 164.389 58.4919 164.389 58.4919C152.087 61.2968 126.529 90.9036 126.529 90.9036C126.529 90.9036 72.4695 55.5313 45.4396 58.8036C45.4396 58.8036 164.475 62.3097 208.572 114.901" stroke="#6C63FF" stroke-width="2" stroke-miterlimit="10"/>
<path d="M45.4395 61.0631C46.8271 61.0631 47.9519 60.0515 47.9519 58.8036C47.9519 57.5558 46.8271 56.5442 45.4395 56.5442C44.052 56.5442 42.9271 57.5558 42.9271 58.8036C42.9271 60.0515 44.052 61.0631 45.4395 61.0631Z" fill="#6C63FF"/>
<path d="M68.1378 109.369C69.5253 109.369 70.6502 108.357 70.6502 107.109C70.6502 105.862 69.5253 104.85 68.1378 104.85C66.7502 104.85 65.6254 105.862 65.6254 107.109C65.6254 108.357 66.7502 109.369 68.1378 109.369Z" fill="#6C63FF"/>
<path d="M164.389 60.7514C165.776 60.7514 166.901 59.7399 166.901 58.492C166.901 57.2441 165.776 56.2325 164.389 56.2325C163.001 56.2325 161.876 57.2441 161.876 58.492C161.876 59.7399 163.001 60.7514 164.389 60.7514Z" fill="#6C63FF"/>
<path d="M208.572 117.16C209.96 117.16 211.085 116.149 211.085 114.901C211.085 113.653 209.96 112.641 208.572 112.641C207.185 112.641 206.06 113.653 206.06 114.901C206.06 116.149 207.185 117.16 208.572 117.16Z" fill="#6C63FF"/>
<path d="M126.529 93.1631C127.917 93.1631 129.042 92.1515 129.042 90.9036C129.042 89.6558 127.917 88.6442 126.529 88.6442C125.142 88.6442 124.017 89.6558 124.017 90.9036C124.017 92.1515 125.142 93.1631 126.529 93.1631Z" fill="#6C63FF"/>
</g>
<defs>
<clipPath id="clip0">
<rect width="247" height="165" fill="white" transform="translate(0.5 0.156067)"/>
</clipPath>
</defs>
</svg>
