<svg width="45" height="45" viewBox="0 0 45 45" fill="none" xmlns="http://www.w3.org/2000/svg">
<path d="M43.9141 1.90474L43.6898 1.31121L43.0963 1.08706C41.1862 0.365723 39.1786 0 37.1291 0C32.6251 0 28.3905 1.75399 25.2056 4.93894L20.69 9.45448L10.5978 9.94399L2.151 18.3907L9.4339 20.7106L6.74079 23.4036L8.31398 24.9768L4.82866 30.319L14.6819 40.1725L20.0242 36.6872L21.5974 38.2603L24.2905 35.5672L26.6102 42.8501L35.0572 34.4033L35.5467 24.3112L40.0622 19.7957C44.7399 15.1178 46.2519 8.09524 43.9141 1.90474ZM7.39958 17.1146L11.8173 12.697L17.7345 12.41L11.6697 18.4748L7.39958 17.1146ZM15.0564 36.5744L8.42671 29.9448L10.3436 27.0066L17.9945 34.6575L15.0564 36.5744ZM32.3041 33.184L27.8865 37.6016L26.5263 33.3314L32.5911 27.2667L32.3041 33.184ZM21.5974 34.2879L10.7132 23.4036L27.1918 6.92504C29.8462 4.2707 33.3753 2.80893 37.1291 2.80893C38.6232 2.80893 40.0902 3.04179 41.499 3.50189C43.1329 8.50928 41.8232 14.0621 38.076 17.8094L21.5974 34.2879Z" fill="white"/>
<path d="M34.1707 6.61688C33.0453 6.61688 31.9873 7.05517 31.1915 7.85094C29.5486 9.4937 29.5486 12.1668 31.1915 13.8096C31.9873 14.6054 33.0454 15.0437 34.1707 15.0437C35.2961 15.0437 36.3542 14.6054 37.15 13.8096C38.7928 12.1669 38.7928 9.49379 37.15 7.85094C36.3543 7.05517 35.2962 6.61688 34.1707 6.61688ZM35.1639 11.8234C34.8986 12.0887 34.5459 12.2348 34.1708 12.2348C33.7957 12.2348 33.443 12.0887 33.1778 11.8235C32.6301 11.2759 32.6301 10.3849 33.1778 9.83723C33.443 9.57197 33.7957 9.42591 34.1708 9.42591C34.5459 9.42591 34.8986 9.57197 35.1639 9.83723C35.7114 10.3848 35.7114 11.2759 35.1639 11.8234Z" fill="white"/>
<path d="M0.0012207 35.1689L3.18458 31.9855L5.17078 33.9717L1.98742 37.155L0.0012207 35.1689ZM9.83164 45L7.84544 43.0138L11.0288 39.8304L13.015 41.8166L9.83164 45ZM2.34368 40.5308L7.03666 35.8378L9.02285 37.824L4.32988 42.517L2.34368 40.5308Z" fill="white"/>
</svg>
